<svg xmlns="http://www.w3.org/2000/svg" xml:space="preserve" id="svg1" version="1.1" viewBox="0 0 128.5261 66.1984">
  <g id="layer1" transform="translate(-2.86 -2.6403)">
    <path id="path5" d="M67.6033 4.5936c-.1916-.064-.2775 4.8308-.2775 15.8057v15.8988l16.167 16.138c8.8916 8.8758 16.2693 16.138 16.3953 16.138.1265 0 .2316-7.0868.2346-15.8222l.006-15.8223-16.124-16.122c-8.8681-8.867-16.2488-16.1631-16.4014-16.214Z"/>
    <path id="path4" d="M66.532 4.4142 50.2601 20.6846 33.9883 36.9549v15.9417c0 8.768.0739 15.9421.1648 15.9421.0909 0 7.413-7.233 16.2714-16.0734L66.531 36.6919l.0005-16.1391z"/>
    <path id="path3" d="M83.253 2.6403c-8.7868 0-16.0133.0371-16.059.0827-.0456.0456 7.2078 7.3703 16.1184 16.2765L99.5135 35.193h15.936c8.7648 0 15.9365-.09 15.9365-.1995 0-.1096-7.2355-7.4338-16.0786-16.276L99.2288 2.6408Z"/>
    <path id="path2" d="M51.163 2.7177 35.2615 2.85 22.4964 15.6095C15.4758 22.627 8.1856 29.9197 6.296 31.8152l-3.436 3.4463h32.0342L51.069 19.0687c8.8962-8.906 16.1346-16.2581 16.0853-16.338-.0493-.0798-7.2454-.0857-15.9913-.013z"/>
  </g>
</svg>
