<svg xmlns="http://www.w3.org/2000/svg" xml:space="preserve" width="485.7679" height="250.1987" viewBox="0 0 128.5261 66.1984">
  <path d="M64.7433 1.9532c-.1916-.0639-.2775 4.8309-.2775 15.8058v15.8988l16.167 16.138c8.8917 8.8758 16.2694 16.138 16.3954 16.138.1265 0 .2316-7.0868.2346-15.8223l.006-15.8223-16.124-16.122c-8.8681-8.867-16.2488-16.163-16.4015-16.214ZM63.672 1.774 47.4003 18.0441 31.1283 34.3146v15.9416c0 8.7681.074 15.9422.1649 15.9422s7.413-7.233 16.2713-16.0734l16.1066-16.0735.0005-16.139zM80.3931 0c-8.7868-.0001-16.0133.0371-16.059.0827-.0456.0456 7.2078 7.3702 16.1184 16.2765l16.2011 16.1933h15.936c8.7648 0 15.9365-.0899 15.9365-.1994 0-.1096-7.2355-7.4338-16.0786-16.276L96.3689.0005ZM48.303.0774 32.4016.2097l-12.765 12.7594C12.6158 19.9868 5.3255 27.2794 3.436 29.175L0 32.6212h32.0342L48.209 16.4284C57.1052 7.5224 64.3436.1702 64.2943.0904 64.2449.0104 57.0489.0045 48.303.0773z"/>
</svg>
