<?xml version="1.0" encoding="UTF-8" standalone="no"?>
<!-- Created with Inkscape (http://www.inkscape.org/) -->

<svg
   width="128.52608mm"
   height="66.19841mm"
   viewBox="0 0 128.52608 66.19841"
   version="1.1"
   id="svg1"
   xml:space="preserve"
   xmlns="http://www.w3.org/2000/svg"
   xmlns:svg="http://www.w3.org/2000/svg"><defs
     id="defs1" /><g
     id="layer1"
     transform="translate(-2.8599106,-2.6403228)"><path
       d="m 67.603252,4.5935664 c -0.1916,-0.0639 -0.2775,4.83086 -0.2775,15.8057496 v 15.898765 l 16.16697,16.13804 c 8.89164,8.875757 16.269364,16.138029 16.395384,16.138029 0.126504,0 0.231614,-7.086812 0.234614,-15.822289 l 0.006,-15.82229 L 84.004632,20.807556 C 75.136582,11.940566 67.755882,4.6444664 67.603252,4.5935664 Z"
       id="path5" /><path
       d="M 66.532002,4.4142464 50.260122,20.684566 33.988253,36.954891 v 15.94166 c 0,8.768067 0.0739,15.942179 0.16485,15.942179 0.0909,0 7.41296,-7.233052 16.271349,-16.073439 l 16.10652,-16.07343 5.1e-4,-16.139065 z"
       id="path4" /><path
       d="m 83.253009,2.6403231 c -8.786775,-10e-5 -16.013339,0.0371 -16.058969,0.0827 -0.04563,0.0456 7.207746,7.3702389 16.118399,16.2765189 l 16.20108,16.19333 h 15.935961 c 8.76484,0 15.9365,-0.0899 15.9365,-0.19947 0,-0.10958 -7.23551,-7.4338 -16.07861,-16.27601 L 99.228779,2.6408331 Z"
       id="path3" /><path
       d="m 51.162906,2.7177383 -15.901355,0.13229 -12.76511,12.7594297 c -7.02067,7.01764 -14.3108903,14.31024 -16.2005603,16.20573 l -3.4359702,3.4463 H 18.877021 34.894132 l 16.174723,-16.19281 c 8.896206,-8.90602 16.134643,-16.2581197 16.085323,-16.3380197 -0.04932,-0.0798 -7.245384,-0.0857 -15.991272,-0.0129 z"
       id="path2" /></g></svg>
