<svg class="baklava-symbols">
  <symbol id="baklava-1" viewBox="0 0 64.295 32.595">
    <path style="fill: currentColor" d="M48.303.051 32.402.183l-12.765 12.76C12.616 19.96 5.326 27.253 3.436 29.148L0 32.595h32.034L48.21 16.402C57.105 7.496 64.344.144 64.294.064c-.05-.08-7.245-.086-15.991-.013z"/>

  </symbol>
  <symbol id="baklava-2" viewBox="0 0 32.544 64.424">
    <path style="fill: currentColor" d="M32.544 0 16.272 16.27 0 32.54v15.942c0 8.768.074 15.942.165 15.942.09 0 7.413-7.233 16.271-16.073l16.107-16.073v-16.14z"/>
  </symbol>
  <symbol id="baklava-3" viewBox="0 0 32.803 63.981">
    <path style="fill: currentColor" d="M.277 0C.086-.062 0 4.832 0 15.807v15.9l16.167 16.137c8.892 8.876 16.27 16.138 16.395 16.138.127 0 .232-7.087.235-15.822l.006-15.822-16.124-16.122C7.81 7.348.43.052.277 0Z"/>
  </symbol>
  <symbol id="baklava-4" viewBox="0 0 64.192 32.553">
    <path style="fill: currentColor" d="M16.06 0C7.271 0 .045.037 0 .083c-.045.045 7.208 7.37 16.119 16.276l16.2 16.194h15.937c8.764 0 15.936-.09 15.936-.2 0-.11-7.235-7.434-16.078-16.276L32.035.001Z"/>
  </symbol>
</svg>
