<?xml version="1.0" encoding="UTF-8" standalone="no"?>
<!-- Created with Inkscape (http://www.inkscape.org/) -->

<svg
   width="400.84387mm"
   height="100.14489mm"
   viewBox="0 0 400.84387 100.14489"
   version="1.1"
   id="svg1"
   xml:space="preserve"
   xmlns="http://www.w3.org/2000/svg"
   xmlns:svg="http://www.w3.org/2000/svg"><defs
     id="defs1" /><g
     id="layer1"
     transform="translate(93.906931,-33.501822)"><path
       d="m 289.7389,116.31641 v 0.25787 0.25735 l 4.0349,0.0734 4.0349,0.0729 0.0698,8.26823 0.0703,8.26823 h 0.25683 0.25735 l 0.0698,-8.26823 0.0698,-8.26823 4.16718,-0.0729 4.16719,-0.0729 v -0.25787 -0.25787 h -8.59896 z"
       id="path3718" /><path
       id="path3717"
       d="m 273.127,116.31641 -0.16072,0.41858 -0.16071,0.41858 v 7.71426 7.71477 l -3.01739,-3.13727 -4.80175,-4.93178 1.57352,1.92974 -1.41192,-0.98966 7.85649,8.0607 h 0.29714 0.29766 v -8.59896 -8.59896 h -0.23616 z m -16.41968,-0.0523 -0.34519,0.20892 -0.22531,0.13901 0.11988,8.20555 -0.11988,8.34383 0.17622,0.17673 0.17673,0.17622 h 0.22014 0.22066 l 0.11988,-8.1056 v -8.03569 l 4.21215,4.20956 0.25734,-0.1452 0.54864,0.099 -2.90766,-2.92775 z m 5.08444,4.99194 -0.29507,0.18242 -0.23513,0.14521 3.82561,3.82509 2.15547,2.16559 -0.75836,-1.0304 1.51003,1.07808 -3.81148,-3.9496 -1.31155,-1.3255 -0.0145,-0.0145 z" /><path
       d="m 240.26182,116.30918 -8.6651,0.0698 -8.66511,0.0698 -0.0698,8.53281 -0.0698,8.53281 h 8.78757 8.7881 l -0.27234,-0.27233 -0.27233,-0.27234 -8.11527,0.0739 -8.11475,0.0739 v -3.77032 -3.77031 -0.15193 -0.15193 l 3.96823,-0.0465 3.96824,-0.0465 v -0.26459 -0.26458 h -3.96875 -3.96824 l 5.2e-4,-3.91294 v -3.91242 l 0.59531,0.0512 0.59532,0.0512 7.73906,-0.0413 7.73906,-0.0408 v -0.2682 z"
       id="path3713" /><path
       d="m 189.46182,116.31641 v 8.62118 8.62067 l 0.33073,-0.11007 0.33021,-0.11059 0.0605,-7.51841 0.0605,-7.5184 0.006,-0.39378 0.006,-0.39325 3.96875,3.96203 3.96875,3.96203 3.96462,-3.9579 3.96461,-3.95841 0.0703,7.93026 0.0703,7.93027 h 0.26459 0.26458 l 0.0698,-8.53281 0.0698,-8.53282 h -0.26614 -0.26613 l -4.146,4.12068 -4.14652,4.1212 -4.12688,-4.1212 -4.1274,-4.12068 h -0.19533 z"
       id="path3712" /><path
       d="m 156.12432,116.31641 v 8.59896 8.59896 h 0.26458 0.26459 v -7.7897 -7.78971 l 0.21911,-0.13539 0.2191,-0.13539 7.95559,7.95765 7.95507,7.95765 0.22634,-0.13952 0.22583,-0.13953 -0.0734,-8.49199 -0.0734,-8.49199 h -0.25322 -0.25373 l -0.0698,8.08892 -0.0703,8.08839 -8.06979,-8.08736 -8.06979,-8.08788 -0.19844,-10e-4 z"
       id="path3711" /><path
       d="m 139.45557,116.31641 v 8.59896 8.59896 h 0.26458 0.26459 v -8.59896 -8.59896 h -0.26459 z"
       id="path3710" /><path
       d="m 114.54495,116.31641 -4.21318,4.27003 -4.2137,4.2695 v 4.32946 4.32893 h 0.26458 0.26459 v -4.10104 -4.10104 h 8.06979 8.06979 v 3.95324 3.95274 l 0.26458,0.16381 0.26459,0.1633 v -4.36614 -4.36615 l -2.38125,-2.40243 v 0.1235 0.13229 h -0.13229 -0.1323 v -0.13229 -0.13229 h 0.1323 0.1235 l -1.82056,-1.8371 -4.21008,-4.24832 h -0.17518 z m -0.11111,1.05885 0.27389,0.003 0.27388,0.003 3.50573,3.4215 3.50573,3.42149 v 0.14728 0.14728 H 114.67 l -7.32306,5.1e-4 3.54345,-3.57187 z"
       id="path3709" /><path
       d="m 73.076676,116.31641 -0.163814,0.26459 -0.163297,0.26458 0.478523,0.0129 0.478524,0.0134 3.638021,-0.0258 3.638021,-0.0253 v 8.34677 8.34678 h 0.40721 0.40721 l -0.03256,-8.26823 -0.03204,-8.26823 4.123262,-0.0729 4.122746,-0.0729 v -0.25787 -0.25787 h -8.451164 z"
       id="path3708" /><path
       d="m 39.81359,116.31641 -0.317293,0.3173 -0.31781,0.31781 v 8.10493 8.10493 l 0.176217,0.17673 0.176733,0.17622 h 0.220142 0.220658 l -5.17e-4,-4.16719 v -4.16718 l 4.039547,0.0785 4.040064,0.0786 4.061767,4.08864 4.061251,4.08864 h 0.286804 0.287321 l -1.045931,-1.08985 -1.045931,-1.08986 -2.970878,-2.94504 -2.970361,-2.94504 3.896403,-0.13229 3.896919,-0.13229 0.07286,-4.43177 0.07235,-4.43178 h -8.420158 z m 0.158647,0.52917 h 7.9375 7.9375 v 3.90261 3.9026 h -7.9375 -7.9375 v -3.9026 z"
       id="path3707" /><path
       d="m 6.4352661,116.31641 -0.3012736,0.36226 -0.3007568,0.36276 0.07028,8.17005 0.069763,8.17056 7.9375003,0.13229 7.9375,0.13229 0.598413,-0.0103 0.598413,-0.0103 -0.06925,-0.25425 -0.06925,-0.25424 h -8.13593 -8.1359379 l -5.167e-4,-3.96875 v -3.96875 l 4.1279136,0.0791 4.127913,0.0796 -0.115238,-0.34416 -0.115239,-0.34365 H 10.646895 6.6342204 l 5.167e-4,-3.9026 v -3.90261 h 8.3343749 8.334375 v -0.26458 -0.26459 h -8.43411 z"
       id="path3706" /><path
       d="m -27.23193,116.31641 v 0.25787 0.25735 l 4.034896,0.0734 4.034896,0.0729 0.06976,8.26823 0.07028,8.26823 h 0.256832 0.257349 l 0.06976,-8.26823 0.06976,-8.26823 4.167188,-0.0729 4.167187,-0.0729 v -0.25787 -0.25787 h -8.598958 z"
       id="path3705" /><path
       d="m -43.843835,116.31641 -0.160714,0.41858 -0.160714,0.41858 -10e-4,7.71736 -0.0016,7.71736 -8.1132,-8.12405 -8.113716,-8.12354 -0.219625,0.13591 -0.219625,0.13539 v 8.45117 8.45116 h 0.396875 0.396875 v -8.03878 -8.03827 l 8.04292,8.03827 8.043437,8.03878 h 0.290938 0.291455 v -8.59896 -8.59896 h -0.236161 z"
       id="path3704" /><path
       d="m -93.90693,116.31641 v 8.57674 8.57726 l 0.26355,0.0879 0.26355,0.0884 8.004679,-0.0651 8.00468,-0.0651 0.346232,-0.001 0.346749,-0.001 -0.163815,-0.26458 -0.163297,-0.26459 h -8.193815 -8.193298 l 0.07286,-3.86333 0.07338,-3.86281 4.061251,0.0388 4.060734,0.0388 -0.113688,-0.34314 -0.114205,-0.34261 -4.013192,-0.0734 -4.013192,-0.0729 v -3.82975 -3.82922 h 8.334375 8.334375 v -0.26458 -0.26459 h -8.598958 z"
       id="path3703" /><path
       d="M 273.59932,34.163806 289.87326,50.437748 306.1472,66.71169 306.079,82.783577 306.0108,98.855465 289.80507,82.648185 273.59934,66.440906 V 50.302356 Z"
       id="path3702" /><path
       d="m 272.41025,34.560164 h 0.19792 0.1974 V 50.501827 66.444006 L 256.5337,82.714331 240.26182,98.984656 V 82.845072 66.705489 l 16.07447,-16.072921 z"
       id="path3701" /><path
       d="m 189.8742,67.103914 -16.06672,16.055868 -16.06672,16.055351 0.13332,0.216524 0.13385,0.216007 h 15.7887 15.7887 l 16.27601,-16.271358 16.27652,-16.271358 -16.13183,-5.17e-4 z"
       id="path3700" /><path
       d="m 189.0665,34.560164 h 0.19792 0.1974 V 50.501827 66.444006 L 173.18995,82.714331 156.91807,98.984656 V 82.845072 66.705489 l 16.07447,-16.072921 z m 0.8077,32.54375 16.13183,5.17e-4 16.13183,5.17e-4 -16.27652,16.271358 -16.27601,16.271358 h -15.7887 -15.7887 l -0.13385,-0.216007 -0.13332,-0.216524 16.06672,-16.055351 z"
       id="path3699" /><path
       d="m 106.64724,34.516239 0.28318,0.09405 0.28319,0.09457 16.1184,16.099793 16.11839,16.099792 -0.006,15.842444 -0.006,15.842444 -0.32143,-0.02067 -0.32298,-0.02015 -16.07332,-16.09618 -16.07343,-16.096176 V 50.436198 Z"
       id="path3698" /><path
       d="M 105.85349,34.429423 V 50.572107 66.714274 L 89.772298,82.784094 73.690592,98.853914 H 73.500423 73.309737 V 82.911735 66.970072 L 89.581612,50.699748 Z"
       id="path3697" /><path
       d="m -9.0552612,67.095129 -0.082682,0.0832 -0.083199,0.08268 L 6.9799357,83.454338 23.181531,99.647664 H 39.117509 55.053487 V 99.448193 99.249239 L 38.975399,83.172184 22.896794,67.095646 6.9210246,67.095129 Z"
       id="path3696" /><path
       d="m 23.670907,33.501831 -0.778764,0.597896 -0.779281,0.597897 -15.6481403,15.657959 -15.6486572,15.657959 0.082166,0.08217 0.082166,0.08217 15.956132,-0.05994 L 22.89266,66.057983 38.972815,49.979378 55.053487,33.900256 V 33.700785 33.501831 H 39.362455 Z"
       id="path3695" /><path
       d="m -28.504203,66.971623 -15.914791,0.132291 -15.914274,0.132292 -16.125631,16.121497 -16.125114,16.120979 v 0.08475 0.08423 h 15.963884 15.963883 l 16.164905,-16.19436 16.164388,-16.19436 -0.08837,-0.143661 z"
       id="path3694" /><path
       d="m -60.019592,33.501831 -16.263607,16.246037 -16.263607,16.246037 0.09147,0.09198 0.09147,0.09198 15.963366,-0.0708 15.963367,-0.07028 16.073438,-16.06827 16.073437,-16.06827 V 33.700774 33.50182 h -15.864665 z"
       id="path3693" /></g></svg>
