<?xml version="1.0" encoding="UTF-8" standalone="no"?>
<!-- Created with Inkscape (http://www.inkscape.org/) -->

<svg
   width="401.14709mm"
   height="100.32144mm"
   viewBox="0 0 401.14709 100.32144"
   version="1.1"
   id="svg1"
   xml:space="preserve"
   xmlns:inkscape="http://www.inkscape.org/namespaces/inkscape"
   xmlns:sodipodi="http://sodipodi.sourceforge.net/DTD/sodipodi-0.dtd"
   xmlns="http://www.w3.org/2000/svg"
   xmlns:svg="http://www.w3.org/2000/svg"><sodipodi:namedview
     id="namedview1"
     pagecolor="#ffffff"
     bordercolor="#000000"
     borderopacity="0.25"
     inkscape:showpageshadow="2"
     inkscape:pageopacity="0.0"
     inkscape:pagecheckerboard="0"
     inkscape:deskcolor="#d1d1d1"
     inkscape:document-units="mm" /><defs
     id="defs1" /><g
     inkscape:label="Layer 1"
     inkscape:groupmode="layer"
     id="layer1"
     transform="translate(60.873868,-53.170336)"><path
       d="m 323.96207,135.70484 -0.59531,0.14521 -0.59531,0.14521 v 0.39171 0.3917 h 4.10104 4.10104 v 8.15816 8.15764 l 0.17673,0.17674 0.17622,0.17621 h 0.35295 0.35295 v -8.33437 -8.33438 h 4.12016 4.12068 l -0.0894,-0.46302 -0.0889,-0.46302 -8.06618,-0.0739 z"
       id="path3690" /><path
       d="m 289.43395,135.94617 v 8.75088 8.75037 h 0.39687 0.39688 v -8.00209 -8.0021 l 8.00571,8.0021 8.0052,8.00209 h 0.32917 0.32867 v -8.73125 -8.73125 h -0.39688 -0.39687 v 7.80521 7.80521 h -0.18449 -0.18448 l -7.75457,-7.73906 -7.75456,-7.73906 -0.39533,-0.0853 z"
       id="path3689" /><path
       d="m 256.9336,135.72034 -0.41857,0.16071 -0.41858,0.16072 v 8.70283 8.70282 h 8.75088 8.75089 l -0.0894,-0.46302 -0.0889,-0.46302 -8.26462,-0.0698 -8.26512,-0.0698 v -3.70055 -3.70055 h 4.25555 4.25555 l -0.11007,-0.33073 -0.11007,-0.33073 -4.14548,-0.0729 -4.14548,-0.0729 v -3.69745 -3.69745 h 8.33489 8.33386 v -0.36845 -0.36845 l -0.41807,-0.16072 -0.41858,-0.16071 h -7.8946 z"
       id="path3688" /><path
       d="m 222.75946,135.98492 -0.0129,0.46303 -0.0124,0.46302 0.0119,8.20208 0.0124,8.20208 5.2e-4,0.0661 v 0.0661 h 0.39739 0.39687 v -8.00002 -8.00003 l 3.77342,3.76669 3.77393,3.7667 h 0.39687 0.39739 l 3.56464,-3.57188 3.56464,-3.57187 h 0.19792 0.19792 l 0.0703,7.71736 0.0703,7.71684 0.33073,0.11059 0.33073,0.11007 v -8.75347 -8.75348 h -0.4749 -0.47439 l -3.9455,3.97754 -3.94549,3.97753 -3.98374,-3.97753 -3.98322,-3.97754 h -0.32763 z"
       id="path3687" /><path
       d="m 190.00332,135.90844 -0.42323,0.16227 -0.42323,0.16226 v 8.43101 8.43049 l 0.17674,0.17674 0.17621,0.17621 h 0.35295 0.35244 v -8.00209 -8.0021 l 8.00571,8.0021 8.0052,8.00209 h 0.32917 0.32867 v -8.73125 -8.73125 h -0.36846 -0.36845 l -0.16071,0.41858 -0.16072,0.41858 v 7.45123 7.45122 l -7.91114,-7.90804 z"
       id="path3686" /><path
       d="m 172.48811,135.98492 v 8.55504 8.55451 l 0.17674,0.17674 0.17621,0.17621 h 0.35295 0.35295 v -8.73125 -8.73125 h -0.52916 z"
       id="path3685" /><path
       d="m 147.68498,135.95909 -4.26693,4.2664 -4.26744,4.26589 v 4.30155 4.30154 l 0.17674,0.17674 0.17621,0.17621 h 0.35295 0.35244 v -4.23333 -4.23333 h 7.79849 7.79849 l 0.0729,4.16719 0.0729,4.16718 h 0.39688 0.39687 l 0.0724,-4.36976 0.0724,-4.36976 -4.23023,-4.22919 -4.23024,-4.2292 -0.37258,-0.0791 z m 0.3147,1.09192 3.18896,3.10472 3.18947,3.10524 0.32608,0.46302 0.32607,0.46302 h -7.07605 -7.07605 l 3.5605,-3.56826 z"
       id="path3684" /><path
       d="m 106.40739,135.72034 -0.29455,0.35502 -0.29507,0.35502 0.17415,0.17414 0.17415,0.17415 h 4.05711 4.05712 v 8.33438 8.33437 h 0.39635 0.3974 v -8.33437 -8.33438 h 4.23281 4.23334 v -0.36845 -0.36845 l -0.41807,-0.16072 -0.41858,-0.16071 h -8.14834 z"
       id="path3683" /><path
       d="m 73.312775,135.72034 -0.418579,0.16071 -0.418063,0.16072 v 8.70283 8.70282 h 0.390158 0.38964 l 0.07338,-4.16718 0.07286,-4.16719 3.777031,-0.0734 3.77703,-0.0734 4.244702,4.24057 4.245219,4.24056 h 0.24598 0.246496 l -0.0041,-0.46302 -0.0041,-0.46302 -3.726387,-3.70416 -3.726388,-3.70417 3.796668,-0.0724 3.796667,-0.0723 -0.07545,-4.29328 -0.07493,-4.29328 -0.115239,-0.33073 -0.114721,-0.33073 h -8.189165 z m -0.04289,1.05833 h 7.9375 7.9375 v 3.70417 3.70417 h -7.9375 -7.9375 v -3.70417 z"
       id="path3682" /><path
       d="m 40.329258,135.70484 -0.595312,0.14521 -0.595313,0.14521 v 8.72608 8.72608 h 8.750371 8.750887 l -0.0894,-0.46302 -0.08888,-0.46302 -8.264612,-0.0698 -8.264612,-0.0703 v -3.70003 -3.70055 h 4.233334 4.233333 v -0.39688 -0.39687 h -4.233333 -4.233334 v -3.70417 -3.70417 h 8.353496 8.354012 l -0.0894,-0.46302 -0.08888,-0.46302 -8.066174,-0.0739 z"
       id="path3681" /><path
       d="m 6.6377753,135.72034 -0.418579,0.16071 -0.418062,0.16072 v 0.36845 0.36845 h 4.101041 4.1010417 v 8.15816 8.15764 l 0.176217,0.17674 0.176216,0.17621 h 0.35295 0.35295 v -8.33437 -8.33438 h 4.101042 4.101041 v -0.52916 -0.52917 h -8.313187 z"
       id="path3680" /><path
       d="m -27.536367,135.98492 v 8.73125 8.73125 h 0.396875 0.396875 v -8.00209 -8.0021 l 8.005197,8.0021 8.005197,8.00209 h 0.329179 0.329178 v -8.73125 -8.73125 h -0.396875 -0.396875 v 7.9804 7.98039 l -7.982459,-7.98039 -7.981942,-7.9804 h -0.352433 z"
       id="path3679" /><path
       d="m -60.037225,135.72034 -0.418579,0.16071 -0.418063,0.16072 v 8.70283 8.70282 h 8.686809 8.687325 l 0.174149,-0.17415 0.17415,-0.17414 -0.295073,-0.35502 -0.294555,-0.35502 h -8.037236 -8.037235 v -3.70417 -3.70416 h 4.122746 4.123262 l -0.110071,-0.33073 -0.110071,-0.33073 -4.013191,-0.0729 -4.012675,-0.0734 v -3.69694 -3.69745 h 8.186063 8.186581 l 0.155546,-0.25114 0.155029,-0.25115 -0.518831,-0.27802 -0.519348,-0.27802 h -7.933366 z"
       id="path3678" /><path
       d="m 306.89645,53.964086 h 0.17053 0.17001 l 16.10393,16.110645 16.10341,16.110644 -0.0682,16.246035 -0.0682,16.24604 -16.20572,-16.20573 -16.20573,-16.20573 V 70.115038 Z"
       id="path3677" /><path
       d="m 306.1027,53.833345 -0.005,16.271358 -0.005,16.270841 -16.26723,16.255856 -16.2667,16.25638 v -16.2569 -16.256886 l 16.27187,-16.270325 z"
       id="path3676" /><path
       d="m 222.42828,53.964148 -16.23415,16.205729 -16.23363,16.205729 -0.005,16.029514 -0.005,16.02951 0.17673,0.17622 0.17622,0.17673 16.22795,-16.23622 16.22795,-16.235698 V 70.139905 53.964148 h -0.16536 z"
       id="path3692" /><path
       d="m 223.3259,86.507898 h 15.97267 15.97319 l 0.12764,0.206706 0.12764,0.206705 -16.21865,16.197461 -16.21865,16.19746 h -16.17265 -16.17266 v -0.12609 -0.12661 l 16.29099,-16.27756 z"
       id="path3691" /><path
       d="m 139.94436,53.964086 h 0.19947 0.19947 l 16.2047,16.206763 16.20521,16.206246 v 16.072915 16.07241 h -0.19947 -0.19947 L 156.14958,102.31617 139.94436,86.109411 V 70.037007 Z"
       id="path3674" /><path
       d="m 139.04158,53.942899 0.18706,0.187068 0.18707,0.187069 v 15.897738 15.897737 l -16.40416,16.402619 -16.40417,16.40262 V 102.64587 86.373994 l 16.2171,-16.215548 z"
       id="path3673" /><path
       d="m 24.145233,86.507836 -0.155546,0.155546 -0.155546,0.156063 16.273942,16.248105 16.274459,16.24862 H 72.498871 88.6152 L 88.6121,119.11774 88.609,118.9193 72.384149,102.71356 56.158783,86.507836 H 40.152008 Z"
       id="path3672" /><path
       d="M 56.470392,53.170336 40.263629,69.375549 24.057383,85.580244 v 0.199471 0.198954 H 40.129787 56.202191 L 72.408954,69.773974 88.615717,53.568761 V 53.369807 53.170336 H 72.542796 Z"
       id="path3671" /><path
       d="m -26.873358,86.507836 -16.206763,16.205214 -16.206246,16.2047 v 0.19947 0.19895 h 16.072404 16.072404 L -10.934795,103.11147 5.2719673,86.906261 V 86.707307 86.507836 H -10.800953 Z"
       id="path3670" /><path
       d="m -26.873358,53.170336 -16.206763,16.205213 -16.206246,16.204695 v 0.199471 0.198954 h 16.072404 16.072404 L -10.934795,69.773974 5.2719673,53.568761 V 53.369807 53.170336 H -10.800953 Z"
       id="path3669" /></g></svg>
