<?xml version="1.0" encoding="UTF-8" standalone="no"?>
<!-- Created with Inkscape (http://www.inkscape.org/) -->

<svg
   width="400.69904mm"
   height="100.10647mm"
   viewBox="0 0 400.69904 100.10647"
   version="1.1"
   id="svg1"
   xml:space="preserve"
   xmlns="http://www.w3.org/2000/svg"
   xmlns:svg="http://www.w3.org/2000/svg"><defs
     id="defs1" /><g
     id="layer1"
     transform="translate(3.7962173,-74.484609)"><path
       style="fill:#000000"
       d="m -3.2009073,174.54477 -0.59531,-0.0846 v -8.58056 -8.58055 h 8.59896 c 5.5562503,0 8.5989563,0.0936 8.5989563,0.26458 0,0.17079 -2.956876,0.26458 -8.3414463,0.26458 h -8.34145 l 0.0732,3.85711 0.0732,3.85712 3.94640001,0.0455 c 2.96405999,0.0342 3.97491999,0.13084 4.06098999,0.38836 0.0909,0.27195 -0.72539,0.33485 -3.94639999,0.30408 l -4.06099001,-0.0388 -0.0732,3.8631 -0.0732,3.8631 h 8.19354 c 5.1769603,0 8.2537463,0.0974 8.3570653,0.26459 0.08994,0.14552 0.0077,0.26642 -0.182823,0.26866 -7.1404623,0.0842 -15.8380023,0.1075 -16.2874923,0.0437 z m 107.2223973,-0.0478 -7.937503,-0.13229 -0.07002,-8.17031 c -0.04978,-5.80817 0.01696,-8.27511 0.230835,-8.53281 0.243256,-0.2931 1.918561,-0.3625 8.750738,-0.3625 5.56588,0 8.39407,0.0903 8.28636,0.26458 -0.10329,0.16713 -3.16831,0.26458 -8.32168,0.26458 -6.299764,0 -8.179676,0.0753 -8.252613,0.33073 -0.05195,0.1819 -0.03492,1.93807 0.03784,3.90261 l 0.132292,3.57187 h 3.946701 c 3.00297,0 3.97411,0.0822 4.06134,0.34393 0.0915,0.2746 -0.71747,0.32794 -4.01322,0.26458 l -4.127875,-0.0793 2.41e-4,3.96875 2.4e-4,3.96875 8.202224,-0.0735 c 5.48783,-0.0492 8.20222,0.0165 8.20222,0.19844 0,0.14958 -0.0893,0.28107 -0.19843,0.29221 -0.10915,0.0111 -0.37704,0.0409 -0.59532,0.0661 -0.21828,0.0252 -3.96875,-0.0136 -8.33437,-0.0864 z m -74.74074,-8.26823 c 0.0022,-4.54752 0.09741,-8.41521 0.211516,-8.59485 0.140569,-0.22131 2.826202,2.2954 8.329119,7.80521 l 8.121656,8.13183 0.0012,-7.71742 c 0.0012,-7.51633 0.06897,-8.55445 0.558678,-8.55445 0.319683,0 0.309758,16.85668 -0.01004,17.05433 -0.135474,0.0837 -3.885943,-3.49906 -8.334375,-7.96175 l -8.088058,-8.11398 v 8.10966 c 0,7.03219 -0.05273,8.10965 -0.396874,8.10965 -0.344398,0 -0.39634,-1.09328 -0.392824,-8.26823 z m 41.737737,0 -0.06992,-8.26823 -4.034895,-0.073 c -2.391612,-0.0433 -4.034896,-0.17799 -4.034896,-0.33073 0,-0.16192 3.196014,-0.25769 8.598958,-0.25769 5.406888,0 8.598958,0.0957 8.598958,0.25786 0,0.15343 -1.687676,0.28737 -4.167187,0.33073 l -4.167188,0.0729 -0.06992,8.26823 c -0.04335,5.12612 -0.167598,8.26823 -0.32696,8.26823 -0.159362,0 -0.283613,-3.14211 -0.326959,-8.26823 z m 58.447093,8.09184 c -0.097,-0.097 -0.17639,-3.82367 -0.17639,-8.28146 0,-5.95116 0.0844,-8.18944 0.3175,-8.42256 0.23364,-0.23365 2.54142,-0.3175 8.73765,-0.3175 h 8.42015 l -0.0725,4.43177 -0.0725,4.43177 -3.91684,0.13229 -3.91683,0.13229 2.99079,2.95258 c 4.00068,3.94956 5.1764,5.20416 4.75891,5.0782 -0.1917,-0.0578 -2.15623,-1.91033 -4.36562,-4.11664 l -4.01708,-4.01149 -4.07253,-0.0604 -4.07253,-0.0604 0.0543,4.14396 c 0.0494,3.76893 -0.061,4.50303 -0.59641,3.96757 z m 16.49835,-8.81944 c 0.003,-0.0728 0.0165,-1.79917 0.0294,-3.83646 l 0.0234,-3.70417 h -7.98295 -7.98295 l 0.008,3.77032 c 0.004,2.07367 0.0116,3.80007 0.016,3.83645 0.0157,0.12969 15.88313,0.0636 15.889,-0.0661 z m 25.12943,0.66146 v -8.33438 h -4.11666 c -2.67706,0 -4.05947,-0.0925 -3.95313,-0.26458 0.21935,-0.35492 16.7099,-0.36152 16.92914,-0.007 0.10014,0.16202 -1.37677,0.2849 -3.97513,0.33073 l -4.13447,0.0729 0.0322,8.26823 c 0.0284,7.27929 -0.0165,8.26823 -0.37488,8.26823 -0.35777,0 -0.40708,-1.00951 -0.40708,-8.33437 z m 25.13541,4.00277 v -4.33161 l 4.27259,-4.26735 c 2.34992,-2.34705 4.39383,-4.26735 4.54201,-4.26735 0.14819,0 0.19998,0.0694 0.11509,0.15434 -0.18699,0.18698 0.43148,0.82748 1.60788,1.66515 0.59149,0.42118 0.82052,0.75879 0.71004,1.04669 -0.0897,0.23374 -0.0806,0.3425 0.0202,0.24169 0.30065,-0.30065 2.27353,1.41352 2.11184,1.8349 -0.0794,0.20701 -0.0311,0.30632 0.10747,0.22069 0.29046,-0.17951 1.36355,0.79974 1.1311,1.03219 -0.0849,0.0849 -0.0294,0.15435 0.12321,0.15435 0.15266,0 0.76781,0.49025 1.36702,1.08946 l 1.08946,1.08946 v 4.38741 c 0,5.53595 -0.48351,5.50941 -0.5879,-0.0323 l -0.0736,-3.90535 -7.87135,0.004 c -4.32925,0.002 -7.96066,0.006 -8.0698,0.008 -0.10914,0.002 -0.16285,1.8494 -0.11935,4.10518 0.0528,2.73563 -0.0133,4.10142 -0.19844,4.10142 -0.18234,0 -0.27752,-1.48563 -0.27752,-4.3316 z m 12.44439,-8.3496 c -1.92437,-1.90211 -3.64058,-3.45838 -3.81381,-3.45838 -0.17322,0 -1.9075,1.60536 -3.85395,3.56747 l -3.539,3.56747 7.12025,0.0705 c 3.91614,0.0388 7.2249,-0.0103 7.3528,-0.10909 0.12791,-0.0988 -1.34192,-1.73591 -3.26629,-3.63802 z m 20.89311,4.08224 c 0,-5.55625 0.0936,-8.59895 0.26458,-8.59895 0.17096,0 0.26458,3.0427 0.26458,8.59895 0,5.55625 -0.0936,8.59896 -0.26458,8.59896 -0.17096,0 -0.26458,-3.04271 -0.26458,-8.59896 z m 16.66875,0.14791 c 0,-4.64808 0.0955,-8.51008 0.21226,-8.58224 0.11674,-0.0721 3.83745,3.50125 8.26823,7.9409 l 8.05596,8.07207 0.07,-8.0888 c 0.0427,-4.93346 0.16889,-8.08879 0.32355,-8.08879 0.32115,0 0.49146,16.92792 0.1723,17.12492 -0.12537,0.0774 -3.77651,-3.41331 -8.11365,-7.75709 -4.33713,-4.34377 -8.0148,-7.9408 -8.17258,-7.99339 -0.20187,-0.0673 -0.28688,2.26279 -0.28688,7.86392 0,5.12998 -0.094,7.95955 -0.26458,7.95955 -0.17087,0 -0.26458,-2.9934 -0.26458,-8.45105 z m 33.3375,0.0505 c 0,-4.64454 0.0837,-8.52827 0.1859,-8.63052 0.10224,-0.10224 2.06409,1.68953 4.35965,3.98173 l 4.17375,4.16764 4.13579,-4.15812 c 2.27469,-2.28697 4.24356,-4.15812 4.37527,-4.15812 0.13939,0 0.21029,3.56589 0.16965,8.53281 -0.0452,5.52138 -0.16318,8.50959 -0.33439,8.46702 -0.16514,-0.0411 -0.31431,-2.99861 -0.39688,-7.86896 l -0.13229,-7.80319 -3.70416,3.69457 c -2.03729,2.03201 -3.88444,3.69781 -4.10476,3.70178 -0.22033,0.004 -2.05576,-1.65977 -4.07874,-3.6972 -2.02299,-2.03743 -3.72647,-3.65611 -3.78552,-3.59705 -0.0591,0.059 -0.12862,3.59126 -0.15459,7.84935 -0.0361,5.92414 -0.12488,7.76791 -0.37796,7.85243 -0.25998,0.0868 -0.33072,-1.69596 -0.33072,-8.33417 z m 33.33749,-0.0378 c 0,-7.4506 0.049,-8.45716 0.41852,-8.59896 0.73122,-0.28059 17.04398,-0.18463 17.04398,0.10027 0,0.16447 -3.09427,0.28669 -8.37333,0.33073 l -8.37333,0.0699 0.0565,4.07457 c 0.0434,3.12991 -0.0242,4.12578 -0.29177,4.29543 -0.26432,0.16761 -0.26855,0.22184 -0.0176,0.22491 0.24893,0.003 0.3307,0.93659 0.33059,3.77436 l -1.4e-4,3.77032 8.20223,-0.0735 c 5.48783,-0.0492 8.20222,0.0165 8.20222,0.19844 0,0.18065 -2.88715,0.27196 -8.59896,0.27196 h -8.59896 z m 33.51389,8.26197 c -0.26376,-0.26376 -0.21309,-16.70303 0.052,-16.86685 0.35364,-0.21857 2.98834,2.47066 2.77868,2.8362 -0.0998,0.17403 -0.0841,0.22815 0.035,0.12027 0.27346,-0.24773 0.97055,0.30796 0.77772,0.61997 -0.0787,0.12737 0.0194,0.16921 0.21804,0.093 0.47287,-0.18146 1.36541,0.80838 1.10657,1.2272 -0.12471,0.20178 -0.0886,0.25383 0.0967,0.13931 0.32021,-0.1979 1.42929,0.75077 1.17501,1.00505 -0.0849,0.0849 -0.0323,0.15435 0.11687,0.15435 0.47597,0 3.80398,3.46059 3.61776,3.76189 -0.10214,0.16526 -0.0567,0.21343 0.10625,0.11271 0.15793,-0.0976 1.64822,1.20424 3.34817,2.9248 1.68495,1.70538 3.067,2.927 3.07121,2.71471 0.004,-0.21229 9.1e-4,-3.73219 -0.007,-7.82198 -0.0128,-6.35947 0.0435,-7.48456 0.38922,-7.77146 0.36115,-0.29973 0.40421,0.58395 0.40421,8.29589 0,5.73575 -0.0913,8.63135 -0.27205,8.63135 -0.14962,0 -3.90009,-3.61832 -8.33437,-8.04072 l -8.06233,-8.04071 v 8.04071 c 0,4.4224 -0.0992,8.04072 -0.22048,8.04072 -0.12127,0 -0.29987,-0.0794 -0.39688,-0.17639 z m 41.62778,-8.15798 v -8.33438 h -4.10104 c -2.55764,0 -4.10105,-0.0996 -4.10105,-0.26458 0,-0.171 3.06035,-0.26458 8.65188,-0.26458 5.60152,0 8.56121,0.0907 8.39471,0.25716 -0.14144,0.14144 -2.04049,0.29027 -4.22011,0.33073 l -3.96294,0.0736 -0.0699,8.26823 c -0.0441,5.20882 -0.16642,8.26823 -0.33073,8.26823 -0.16584,0 -0.26081,-3.03481 -0.26081,-8.33437 z m -74.08333,-0.26459 c 0,-0.35611 0.51262,-0.40124 3.83713,-0.3378 2.33288,0.0445 3.83713,0.17694 3.83713,0.3378 0,0.16086 -1.50425,0.29329 -3.83713,0.33781 -3.32451,0.0634 -3.83713,0.0183 -3.83713,-0.33781 z M 0.83781271,137.18395 C 2.7274827,135.28846 10.017763,127.99588 17.038443,120.97823 l 12.764869,-12.75937 15.90163,-0.13229 c 8.745897,-0.0728 15.941981,-0.0669 15.991298,0.0129 0.04932,0.0799 -7.189055,7.43199 -16.08527,16.33802 l -16.174936,16.1928 H 13.419039 -2.5979573 Z M 97.09078,124.43707 c -8.910659,-8.90629 -16.163869,-16.23058 -16.118243,-16.27621 0.04563,-0.0456 7.272141,-0.0829 16.058924,-0.0828 l 15.975969,1.9e-4 16.07838,16.07676 c 8.84311,8.84222 16.07838,16.16643 16.07838,16.27601 0,0.10959 -7.17125,0.19926 -15.9361,0.19926 h -15.93611 z m 150.89719,15.98231 c -0.0717,-0.11601 7.10129,-7.43835 15.93997,-16.27187 l 16.07034,-16.06094 16.12514,6.1e-4 16.12514,6.1e-4 -16.27637,16.27126 -16.27636,16.27127 h -15.78875 c -8.68381,0 -15.84741,-0.0949 -15.91911,-0.21094 z m -84.56753,-16.52477 v -15.94195 l 16.27188,-16.270262 16.27187,-16.27026 -4.6e-4,16.13878 -4.7e-4,16.138772 -16.10618,16.07344 c -8.8584,8.84039 -16.18054,16.07344 -16.27141,16.07344 -0.0909,0 -0.16523,-7.17388 -0.16523,-15.94196 z m 83.60833,-0.067 v -16.13959 l 16.07424,-16.072622 c 8.84083,-8.83994 16.16318,-16.07262 16.27187,-16.07262 0.1087,0 0.19764,7.17388 0.19764,15.94195 v 15.941952 l -16.27188,16.27026 -16.27187,16.27026 z m 83.34374,-0.003 v -16.14277 l 16.08821,-16.069442 c 8.84851,-8.8382 16.17085,-16.06945 16.27187,-16.06945 0.10102,0 0.18367,7.17388 0.18367,15.94195 v 15.941952 l -16.27187,16.27026 -16.27188,16.27026 z m 49.54323,-0.19359 -16.20573,-16.20738 V 91.285118 75.146608 l 16.27395,16.27395 16.27395,16.273952 -0.0682,16.07195 -0.0682,16.07195 z M 212.92491,123.43398 196.75794,107.29584 V 91.397348 c 0,-10.9749 0.0859,-15.86985 0.2775,-15.806 0.15263,0.0509 7.53336,7.34733 16.40162,16.21433 l 16.12412,16.121832 -0.006,15.8223 c -0.003,8.73549 -0.10815,15.8223 -0.23465,15.8223 -0.12602,0 -7.50427,-7.26216 -16.39611,-16.13813 z M -2.1715773,107.08499 c -0.1246,-0.0416 7.04912,-7.363962 15.9415973,-16.271872 l 16.168137,-16.19621 15.601842,-0.0724 c 8.581013,-0.0398 15.778476,-0.005 15.994362,0.0783 0.270331,0.10373 -4.626059,5.16971 -15.729286,16.27405 l -16.121806,16.123432 -15.814153,0.0702 c -8.6977833,0.0386 -15.9160933,0.0361 -16.0406933,-0.005 z m 83.1863393,-5e-4 C 80.907578,106.9773 112.05241,75.824078 113.00258,75.088048 l 0.779,-0.60344 h 15.69131 c 8.63021,0 15.6913,0.0897 15.6913,0.19925 0,0.10959 -7.23524,7.43377 -16.07831,16.27595 l -16.07832,16.076702 -15.958318,0.0621 c -8.777074,0.0341 -15.99259,0.0278 -16.03448,-0.0141 z"
       id="path1" /></g></svg>
